<svg xmlns="http://www.w3.org/2000/svg" xmlns:dc="http://purl.org/dc/elements/1.1/" xmlns:cc="http://creativecommons.org/ns#" xmlns:rdf="http://www.w3.org/1999/02/22-rdf-syntax-ns#" data-vigil-icon="avoidant-attachment" data-vigil-n="27" data-vigil-set="core" data-vigil-version="2.0.0" fill="currentColor" viewBox="0 0 24 24"><title>Avoidant attachment — Vigil Icons</title><desc>Feelings detected. Emergency exit located. Icon 27 of 111 in Vigil Icons by Keno Vigil, free at https://www.vigilicons.com/</desc><metadata><rdf:RDF><cc:Work rdf:about="https://www.vigilicons.com/icons/svg/avoidant-attachment.svg"><dc:format>image/svg+xml</dc:format><dc:type rdf:resource="http://purl.org/dc/dcmitype/StillImage"/><dc:title>Avoidant attachment</dc:title><dc:identifier>vigil-icons:avoidant-attachment</dc:identifier><dc:creator><cc:Agent><dc:title>Keno Vigil</dc:title></cc:Agent></dc:creator><dc:publisher><cc:Agent><dc:title>Vigil Icons</dc:title></cc:Agent></dc:publisher><dc:source>https://www.vigilicons.com/</dc:source><dc:date>2026-09-05</dc:date><dc:rights>© 2026 Keno Vigil. Licensed under the SIL Open Font License 1.1; free to use in anything you make, but not to be sold by itself. https://www.vigilicons.com/LICENSE.txt</dc:rights><cc:license rdf:resource="https://www.vigilicons.com/LICENSE.txt"/><dc:relation>https://www.npmjs.com/package/vigil-icons</dc:relation></cc:Work></rdf:RDF></metadata><path d="M18.6 3.21c-.33.03-.75.16-1.05.32a2.6 2.6 0 00-1.17 1.48l-.07.2v.88l.07.21c.09.31.27.65.42.84q.24.28 0 .26a3 3 0 00-.99.29l-.57.29-.37.23c-.7.52-1 .85-1.39 1.54a9 9 0 00-.5.98l-.05.06h-.28c-.28 0-.28 0-.38.06-.25.15-.27.41-.04.57.09.06.11.06.22.06q.25-.02.18.16-.2.53-.06.95.17.57.74.82l.16.07h.3c.29 0 .31 0 .42-.05l.14-.05q.03 0 .09-.07.12-.11.2-.04c.02.03 0 .58-.04.94l-.04.47-.05.44-.06.47c-.03.35-.01.31-.29.64-.2.24-.34.43-.91 1.18-.87 1.16-.9 1.22-.9 1.73 0 .46.14.79.46 1.09q.57.53 1.36.34c.45-.11.58-.23 1.38-1.3.45-.6.59-.77.92-1.18l.56-.72q.25-.34.29-.83.02-.17.06-.2l.04-.04.04.04c.09.09.32.53.39.73l.18.47.17.43q.03.11.08.19l.04.11.05.12a9 9 0 01.42 1.08l.07.2.05.13c.01.06.15.3.23.42.15.22.59.5.85.55.61.12 1.19-.08 1.5-.5.26-.35.33-.85.17-1.23l-.07-.18-.12-.33-.11-.33-.05-.15a7 7 0 01-.3-.84l-.06-.16-.07-.19-.1-.27-.12-.32a7 7 0 00-.55-1.23l-.09-.13-.39-.58-.08-.12-.14-.2-.17-.24-.11-.17-.07-.1c-.12-.13-.11-.53.02-.53l.12.08c.16.14.22.18.28.22l.17.1c1.17.72 1.94.8 2.47.27.4-.4.48-.99.21-1.52a1.5 1.5 0 00-.58-.56l-.2-.1-.2-.09a3 3 0 01-.7-.48c-.09-.1-.15-.22-.23-.49l-.16-.48-.07-.21-.08-.2-.04-.11c0-.03-.13-.29-.24-.48-.05-.09-.07-.13-.24-.37l-.21-.25c-.18-.17-.17-.21.06-.27.26-.06.34-.09.55-.2a2 2 0 00.44-.27c.22-.17.51-.53.66-.85.18-.36.25-.67.25-1.08 0-.31 0-.33-.07-.58a2.4 2.4 0 00-.62-1.11 2.6 2.6 0 00-2.08-.75Zm.48.77c.67.11 1.19.54 1.41 1.19.06.18.06.19.06.5s0 .33-.06.5c-.16.47-.45.79-.92 1.05-.85.46-1.98.02-2.37-.93q-.19-.44-.1-.91a1.8 1.8 0 011.98-1.41Zm-1.54 4.13c.58.06 1.15.42 1.52.96.09.13.3.54.32.62l.06.16.08.22.06.18.11.32c.23.71.32.84.82 1.2.08.06.35.21.64.35.46.23.57.35.57.64 0 .15 0 .17-.07.27-.16.24-.41.31-.65.2l-.16-.06a4 4 0 01-.92-.46c-.43-.28-.66-.52-.78-.84a.4.4 0 00-.28-.26c-.11-.03-.11-.03-.2.01q-.23.1-.22.43 0 .2-.04.32l-.17.68c-.06.31-.02.48.2.82l.16.24.08.12.37.54.1.15.06.08c.03.02.36.51.44.66l.11.26c.08.25.12.37.17.48l.08.21.22.6.1.29.07.19.04.12.06.18.08.22.1.28.3.82a.5.5 0 01.01.4c-.2.43-.76.51-1.13.17-.13-.12-.23-.31-.38-.73l-.06-.16-.04-.1-.06-.16c-.05-.1-.13-.29-.18-.44l-.07-.15-.06-.15-.08-.19-.05-.12-.04-.09q-.05-.09-.17-.44l-.07-.18-.07-.2a3 3 0 00-.55-.94c-.19-.25-.5-.71-.6-.9-.14-.26-.41-.33-.58-.16-.12.12-.13.15-.12.43.02.43-.01.95-.09 1.25-.1.42-.14.48-.51.93a10 10 0 00-.59.75l-.27.34c-.77 1-.86 1.11-.97 1.21-.16.14-.25.18-.46.18-.16 0-.19-.01-.27-.06q-.43-.27-.44-.7c0-.2.06-.33.25-.59l.35-.48c.35-.49.42-.59.57-.77l.73-.9a1 1 0 00.2-.46l.09-1.17.04-.36c.02-.08.04-.4.08-1.15.02-.43.07-.72.17-1.08.12-.44.37-1.22.45-1.4.19-.44.2-.53.11-.65a.3.3 0 00-.28-.14c-.2 0-.33.11-.49.41l-.24.44c-.15.28-.6 1.21-.7 1.45-.11.26-.2.36-.4.46-.16.08-.25.08-.39.01-.3-.15-.42-.47-.3-.81a3 3 0 01.2-.5l.06-.14.12-.26c.18-.4.21-.49.32-.67.15-.28.35-.6.48-.79.11-.15.51-.56.63-.64l.46-.3c.12-.08.54-.28.64-.31l.18-.07c.18-.07.47-.14.65-.16a2 2 0 01.49 0ZM5.59 11.04c-.23.02-.59.13-.67.2l-.09.05q-.07.03-.16.13-.18.17-.25.11l-.05-.05c0-.06-.54-.37-.72-.41-.3-.07-.79-.04-1.05.06q-.84.33-1.04 1.21a2 2 0 00.26 1.56l.11.17c.2.33 1.13 1.27 2.03 2.05.52.45.54.44 1.25-.25.69-.67.78-.76.82-.77q.04-.01.21.08l.21.09.16.05c.15.05.57.1.76.08q.46-.06.4-.46c-.03-.19-.12-.25-.43-.27q-.77-.06-.73-.19l.17-.2c.69-.71.85-1.73.41-2.47a1.5 1.5 0 00-.71-.64l-.14-.06a2 2 0 00-.76-.07Zm-2.05.79c.2.08.44.33.54.54.13.27.21.34.39.34.15 0 .23-.06.33-.27.17-.34.33-.5.62-.62.14-.06.15-.06.36-.05q.48.02.74.41.4.59-.13 1.4c-.13.2-.29.38-.76.85-1.28 1.27-1.17 1.18-1.29 1.06l-.57-.53a16 16 0 01-1.18-1.2l-.08-.13-.08-.15-.14-.31a2 2 0 01-.03-.56c.05-.38.3-.68.7-.81.11-.04.43-.01.58.05Zm7.41-.46c-.53.28-.97.95-.81 1.25q.1.16.29.19l.1.01.11-.11.18-.22.12-.18c.03-.04.15-.17.28-.29.31-.31.32-.33.22-.54-.11-.2-.24-.23-.49-.1Zm-1.4 2.09q-.08.07-.17.21c-.22.32-.42.52-.73.72q-.3.2-.13.51.1.2.35.14.2-.05.4-.2c.7-.5.98-.95.79-1.25-.13-.2-.36-.27-.5-.14Z"/></svg>