<svg xmlns="http://www.w3.org/2000/svg" xmlns:dc="http://purl.org/dc/elements/1.1/" xmlns:cc="http://creativecommons.org/ns#" xmlns:rdf="http://www.w3.org/1999/02/22-rdf-syntax-ns#" data-vigil-icon="doomscrolling" data-vigil-n="63" data-vigil-set="expansion" data-vigil-version="2.0.0" fill="currentColor" viewBox="0 0 24 24"><title>Doomscrolling — Vigil Icons</title><desc>Still scrolling long after the information stopped helping. Icon 63 of 111 in Vigil Icons by Keno Vigil, free at https://www.vigilicons.com/</desc><metadata><rdf:RDF><cc:Work rdf:about="https://www.vigilicons.com/icons/svg/doomscrolling.svg"><dc:format>image/svg+xml</dc:format><dc:type rdf:resource="http://purl.org/dc/dcmitype/StillImage"/><dc:title>Doomscrolling</dc:title><dc:identifier>vigil-icons:doomscrolling</dc:identifier><dc:creator><cc:Agent><dc:title>Keno Vigil</dc:title></cc:Agent></dc:creator><dc:publisher><cc:Agent><dc:title>Vigil Icons</dc:title></cc:Agent></dc:publisher><dc:source>https://www.vigilicons.com/</dc:source><dc:date>2026-09-05</dc:date><dc:rights>© 2026 Keno Vigil. Licensed under the SIL Open Font License 1.1; free to use in anything you make, but not to be sold by itself. https://www.vigilicons.com/LICENSE.txt</dc:rights><cc:license rdf:resource="https://www.vigilicons.com/LICENSE.txt"/><dc:relation>https://www.npmjs.com/package/vigil-icons</dc:relation></cc:Work></rdf:RDF></metadata><path d="M7.9 2.06a2.1 2.1 0 00-1.45 1.31l-.1.25-.02 3.62c-.02 3.46-.02 3.63-.07 3.69-.03.03-.27.18-.54.31-2.09 1.1-2.59 1.52-2.9 2.42-.15.46-.19.82-.22 2.22q-.07 3.51-.12 3.79c-.02.17-.1.4-.27.89-.11.3-.07.45.16.61.18.13.31.13.5-.02.21-.16.31-.42.51-1.24.04-.18.09-1.11.12-2.43l.09-2.46c0-1.06.28-1.64 1.04-2.13.32-.21 1.47-.81 1.55-.81.14 0 .14 0 .15 2.04v1.91l-.23.22c-.28.27-.33.38-.24.57.14.27.38.39.61.29.2-.09 1.55-.83 1.66-.91.09-.06 1.11-.63 1.14-.63l.55-.29c.75-.4.97-.51 1.16-.56.65-.16 1.32.4 1.29 1.08-.02.48-.41.99-1.03 1.36l-.38.23-.25.15c-.67.41-.86.61-.93 1.01-.02.1-.05.23-.08.29l-.1.29c-.13.39-.24.61-.53 1.04-.25.37-.65.7-1.04.87q-.58.25-.46.63c.09.28.43.41.7.27l.36-.18c.13-.06.33-.19.45-.28q.42-.34.6-.31c.09.01.33.07 1.02.27.41.11.8.13 3.27.13 2 0 2.42-.01 2.63-.05a2 2 0 001.56-1.45l.09-.28.01-7.97.01-7.97-.08-.3a1.9 1.9 0 00-1.46-1.48l-.29-.08h-4.1c-3.97 0-4.11 0-4.33.06Zm8.53.9c.33.14.6.43.73.78.06.15.06.36.06 8.09v7.94l-.09.18q-.08.18-.3.39c-.33.32-.13.3-3.47.31-3.08.01-3.34.01-3.43-.07-.05-.05-.05-.07.1-.39.25-.53.3-.67.43-1.16.07-.26.16-.37.45-.55a8 8 0 001.83-1.36c.29-.32.4-.39.59-.39q.31 0 .79-.26l.4-.22c.37-.19.68-.54.68-.79 0-.18-.17-.4-.37-.5a5 5 0 00-1.46-.14c-.26.02-.25.02-.67-.39q-1.1-1.08-2.68-.27l-.32.15c-.22.1-1.66.87-2.02 1.08-.23.14-.31.15-.38.05-.04-.06-.05-.67-.05-5.87v-5.8l.1-.18c.12-.23.39-.51.6-.62.22-.12.26-.12 4.5-.12h3.79l.2.09ZM13.96 15.6q.15.18-.37.27c-.27.05-.33.03-.37-.1q-.04-.08.02-.16c.06-.08.06-.08.36-.07q.32.02.35.06ZM10.67 3.79c-.16.16-.13.41.06.5.12.06 2.93.08 3.06.02.2-.08.25-.37.09-.53l-.09-.09-1.52.01-1.52.01zm.45 1.59c-.3.05-.86.26-1.04.38q-.46.33-.04.71c.15.14.2.14.44.06l.43-.15a3.4 3.4 0 012.24.13 2.6 2.6 0 01.72 4.22c-.53.5-1.42.76-2.12.63a2.2 2.2 0 01-1.55-1.13 1.5 1.5 0 01-.16-.88c.01-.31.02-.36.11-.54q.4-.8 1.25-.85.96-.06 1.31.69.22.51-.21.86c-.35.28-.53.2-.81-.35-.06-.11-.23-.23-.33-.23-.18 0-.43.2-.52.43-.06.13-.03.24.1.48.51.92 1.88.93 2.5.02.66-.99.11-2.26-1.16-2.71a3 3 0 00-1.39-.01c-.82.23-1.5.93-1.73 1.75a6 6 0 000 1.2 3 3 0 001.33 1.76c1.28.75 2.92.55 4.02-.48a3.3 3.3 0 00.99-3.22l-.08-.35a3.5 3.5 0 00-2.62-2.34 6 6 0 00-1.69-.06Zm9.09 2.06c-.12.05-.26.22-.26.31v3.21c0 2.28-.01 3.15-.03 3.18q-.07.11-.31-.08c-.23-.17-.35-.15-.55.08-.18.21-.12.36.45 1.02.58.68.69.78.85.78s.28-.07.45-.28l.3-.33c.31-.32.63-.71.7-.84.09-.17.07-.25-.05-.39-.2-.22-.37-.23-.6-.02q-.2.18-.31.05c-.05-.05-.05-.34-.04-3.23.01-3.61.03-3.28-.26-3.42-.16-.08-.19-.08-.32-.02Z"/></svg>