<svg xmlns="http://www.w3.org/2000/svg" xmlns:dc="http://purl.org/dc/elements/1.1/" xmlns:cc="http://creativecommons.org/ns#" xmlns:rdf="http://www.w3.org/1999/02/22-rdf-syntax-ns#" data-vigil-icon="emotionally-unavailable" data-vigil-n="36" data-vigil-set="core" data-vigil-version="2.0.0" fill="currentColor" viewBox="0 0 24 24"><title>Emotionally unavailable — Vigil Icons</title><desc>Present in the room. Closed for business. Icon 36 of 111 in Vigil Icons by Keno Vigil, free at https://www.vigilicons.com/</desc><metadata><rdf:RDF><cc:Work rdf:about="https://www.vigilicons.com/icons/svg/emotionally-unavailable.svg"><dc:format>image/svg+xml</dc:format><dc:type rdf:resource="http://purl.org/dc/dcmitype/StillImage"/><dc:title>Emotionally unavailable</dc:title><dc:identifier>vigil-icons:emotionally-unavailable</dc:identifier><dc:creator><cc:Agent><dc:title>Keno Vigil</dc:title></cc:Agent></dc:creator><dc:publisher><cc:Agent><dc:title>Vigil Icons</dc:title></cc:Agent></dc:publisher><dc:source>https://www.vigilicons.com/</dc:source><dc:date>2026-09-05</dc:date><dc:rights>© 2026 Keno Vigil. Licensed under the SIL Open Font License 1.1; free to use in anything you make, but not to be sold by itself. https://www.vigilicons.com/LICENSE.txt</dc:rights><cc:license rdf:resource="https://www.vigilicons.com/LICENSE.txt"/><dc:relation>https://www.npmjs.com/package/vigil-icons</dc:relation></cc:Work></rdf:RDF></metadata><path d="m11.27 2.54-7.99.01-.14.05a.8.8 0 00-.49.42l-.09.17v2.08l.07.14q.21.42.62.46.16.02.2.05c.05.05.06 13.19.01 13.23q-.03.03-.23.04-.38.02-.56.27c-.16.2-.16.24-.16.95l.01.62.06.1q.1.18.3.28l.1.05 9 .01 9 .01.12-.06a1 1 0 00.34-.32l.06-.11v-1.22l-.06-.12c-.09-.2-.19-.3-.42-.43l-.24-.03q-.22-.02-.26-.06c-.04-.04-.04-.05-.04-6.61.01-5.8.01-6.57.04-6.6l.18-.06c.3-.05.6-.3.68-.59.05-.15.04-2.05 0-2.18a1 1 0 00-.49-.51c-.15-.06.66-.06-9.62-.04m9.31.85.06.06v1.5l-.06.06-.06.06-8.53.01c-8.16.01-8.53.01-8.59-.03-.09-.05-.09-.08-.08-.88l.01-.7.06-.06.06-.06 2.38-.01 8.53-.02 6.15-.01.06.06Zm-.95 2.54.06.06v.78l-.06.06-.06.06H4.39l-.04-.04c-.03-.04-.04-.1-.04-.46v-.42l.06-.06.06-.06H12l7.57.01zm-.2 1.53c.26.01.26.01.25.51l-.01.4-.06.05-.06.05h-1.27c-2.66 0-3.6 0-3.82-.02h-.53q-.3.03-2.03.02H4.4l-.05-.04a2 2 0 01-.01-.91l.05-.05h15.04Zm-6.9 1.56q.07.09-.09.19c-.09.06-.29.26-.37.37q-.11.17-.25-.04l-.24-.26c-.2-.18-.2-.2-.15-.26.04-.05.05-.05.56-.04.45 0 .52.01.55.04Zm-4.5 0q.09.07-.09.21c-.11.08-.29.29-.39.45l-.11.14-.07.06H5.88c-1.43 0-1.49 0-1.53-.04-.07-.06-.07-.71 0-.77l.07-.05c.05-.02 3.57-.01 3.6.01Zm11.59.03q.05.03.05.06l.01.36c.01.3 0 .34-.03.37s-.19.04-1.46.04l-1.52.02c-.11.01-.16-.03-.3-.24a2 2 0 00-.38-.42q-.17-.11-.08-.19c.04-.04.29-.04 2.03-.03 1.41.01 1.65.01 1.69.04Zm-9.58.14q.41.1.86.42c.37.27.41.26-1.13.27-1.24.01-1.28.01-1.32-.03q-.1-.08.17-.26c.46-.34 1-.49 1.42-.4m4.27 0q.54.06.99.4.27.2.2.27c-.03.04-2.57.03-2.62-.01q-.09-.05.1-.21c.27-.24.65-.42.96-.45l.17-.02zm-.08 1.21h1.61l.08.07c.08.08.12.2.19.58.03.18.03.19-.01.24l-.04.06-.62.01-4.08.01c-3.38 0-3.47 0-3.51-.04-.11-.1.02-.76.17-.87.06-.04.08-.04 1.75-.04h1.68l.06.05.11.14c.09.16.23.27.33.27s.27-.14.34-.28c.07-.13.21-.23.29-.2l1.64.01Zm5.41.07c.04.04.04.06.04.42 0 .37 0 .38-.05.43l-.05.05-1.32-.01c-1.49-.01-1.38 0-1.4-.2a2 2 0 00-.09-.5c-.04-.07-.04-.2 0-.23.04-.04.07-.04 1.47-.03 1.3.01 1.36.01 1.4.05Zm-12.48.01c.05.06.05.06.02.16-.05.13-.1.43-.1.55q0 .1-.04.14l-.04.05H5.69c-1.31.01-1.31.01-1.35-.04-.04-.04-.04-.08-.04-.43 0-.37 0-.39.05-.43l.05-.05h2.72zm-.12 1.45q.03.05.05.19c.02.16.1.45.16.6.05.11.05.13.01.18-.03.04-.11.04-1.45.04H4.39l-.05-.05c-.05-.05-.05-.06-.04-.48s.01-.43.06-.47c.08-.07 2.63-.06 2.68.01Zm12.59 0c.06.06.06.89-.01.96l-.04.05h-1.43c-1.3 0-1.43 0-1.47-.04q-.08-.04.01-.22c.03-.06.06-.18.08-.25.03-.2.11-.47.13-.5.02-.02.31-.03 1.29-.03 1.37 0 1.38 0 1.44.04Zm-3.56 0c.05.05.05.12-.01.31l-.05.19c0 .08-.14.39-.2.44l-.06.06h-3.8c-3.59 0-3.8 0-3.83-.04a1 1 0 01-.17-.36l-.08-.25q-.1-.32.03-.37l4.09-.02c3.74 0 4.05 0 4.09.03Zm-8.58 1.54c.04 0 .19.21.22.29s.13.23.26.38c.16.19.18.24.14.28-.03.03-.25.03-1.86.04l-1.83.01-.05-.05c-.05-.05-.05-.05-.06-.46 0-.39 0-.41.04-.46l.04-.05h1.53zm7.93.02c.07.06.05.09-.38.62-.1.13-.21.25-.25.28l-.06.05-1 .01c-1.96.02-4.53.01-4.58-.02a7 7 0 01-.58-.68q-.17-.2-.09-.26c.06-.05 6.87-.05 6.93 0Zm4.2.03c.07.07.08.82.01.89-.04.04-.07.04-1.92.04-1.95 0-1.94 0-1.94-.09q0-.04.1-.15c.14-.16.19-.24.31-.45.06-.1.14-.21.19-.25l.09-.08 1.56.01 1.56.01.05.05ZM8.69 15.05l.18.17.37.36c.29.27.34.32.29.37-.04.05-5.12.05-5.18 0s-.06-.83.01-.91l.04-.06 2.11.01c2.09.01 2.11.01 2.18.06m5.41-.02q.03.03.02.08c-.02.05-.54.53-.92.86l-.55.49c-.49.45-.62.56-.67.56-.07 0-.5-.36-.93-.78a2 2 0 00-.45-.37l-.32-.28-.38-.35q-.19-.16-.11-.22c.01-.01.83-.02 2.15-.02 1.91 0 2.13 0 2.16.03m5.49-.03q.02 0 .05.06c.06.09.05.83-.01.88-.05.04-5.18.06-5.23.02-.06-.05-.02-.09.41-.53l.44-.44 2.16.01zm-9.33 1.55.26.21.49.42c.16.13.29.26.29.27 0 .07 0 .07-3.48.08l-3.42.01-.05-.05c-.05-.05-.05-.06-.05-.45 0-.42.01-.48.11-.51l2.92-.01c2.53 0 2.89.01 2.94.04Zm9.37.03.05.06-.01.4c-.01.38-.01.4-.05.44-.05.04-.14.04-2.08.04-3.25.01-4.83 0-4.87-.04q-.05-.07.13-.2c.05-.04.24-.2.42-.38l.38-.35c.05-.04.24-.04 3.01-.04h2.95l.06.06Zm0 1.53c.03.05.04.11.04.51 0 .44 0 .46-.04.5l-.05.05H4.36l-.04-.05c-.04-.04-.04-.09-.03-.51.01-.45.01-.46.06-.52l.05-.05h15.19l.04.05Zm1.03 1.85q.05.03.05.07c.01.46.01.56-.04.61l-.05.05-8.62.01-8.62.01-.05-.05c-.05-.04-.05-.06-.05-.35 0-.4-.04-.37.53-.39h8.63c7.25 0 8.19.01 8.23.04Z"/></svg>