<svg xmlns="http://www.w3.org/2000/svg" xmlns:dc="http://purl.org/dc/elements/1.1/" xmlns:cc="http://creativecommons.org/ns#" xmlns:rdf="http://www.w3.org/1999/02/22-rdf-syntax-ns#" data-vigil-icon="milf" data-vigil-n="49" data-vigil-set="expansion" data-vigil-version="2.0.0" fill="currentColor" viewBox="0 0 24 24"><title>MILF — Vigil Icons</title><desc>Mom status. Main-character confidence. Acronym understood. Icon 49 of 111 in Vigil Icons by Keno Vigil, free at https://www.vigilicons.com/</desc><metadata><rdf:RDF><cc:Work rdf:about="https://www.vigilicons.com/icons/svg/milf.svg"><dc:format>image/svg+xml</dc:format><dc:type rdf:resource="http://purl.org/dc/dcmitype/StillImage"/><dc:title>MILF</dc:title><dc:identifier>vigil-icons:milf</dc:identifier><dc:creator><cc:Agent><dc:title>Keno Vigil</dc:title></cc:Agent></dc:creator><dc:publisher><cc:Agent><dc:title>Vigil Icons</dc:title></cc:Agent></dc:publisher><dc:source>https://www.vigilicons.com/</dc:source><dc:date>2026-09-05</dc:date><dc:rights>© 2026 Keno Vigil. Licensed under the SIL Open Font License 1.1; free to use in anything you make, but not to be sold by itself. https://www.vigilicons.com/LICENSE.txt</dc:rights><cc:license rdf:resource="https://www.vigilicons.com/LICENSE.txt"/><dc:relation>https://www.npmjs.com/package/vigil-icons</dc:relation></cc:Work></rdf:RDF></metadata><path d="M8.33 3.4c-.81.09-1.83.47-2.47.92a6 6 0 00-2.07 2.65l-.07.23-.09.36q-.06.2-.08.67c-.05.85-.2 1.17-.81 1.63-.45.34-.69.66-.92 1.2a2 2 0 00.07 1.65c0 .08.4.67.61.9q.11.13.12.19c0 .14-.34.35-.61.39-.29.03-.47.29-.35.51.05.09.18.2.24.2.12 0 .21.18.12.25l-.13.2a2.3 2.3 0 00-.11 2.3c.15.31.18.34.4.62.24.29.72.66.95.74q.09.03.18.1l.09.08v.6c0 .69 0 .68.23.79.16.08.16.08.33-.03.21-.13.21-.1.19-1.21-.02-1.77.01-2.08.29-2.82.26-.68 1.04-1.24 2.09-1.48.27-.06.25-.07.73.42.21.22.44.43.5.47.17.12.36.32.44.46a5 5 0 002.26 1.91c.41.17 1.17.26 1.5.18l.35-.07c.1-.02.22-.05.28-.08l.21-.1c.39-.18.73-.54.9-.93.13-.29.14-.31.19-.32q.05 0 .15.09l.22.21a7 7 0 011 1.23q.07.11.1.22l.09.21c.05.09.05.14.05.57 0 .46 0 .47-.07.61l-.07.15.05.1q.08.15.27.24l.1.05.14-.07c.19-.11.28-.26.32-.57a3.1 3.1 0 00-.73-2.51 11 11 0 00-.82-.84q-.11-.1-.12-.15c0-.05.12-.26.22-.39l.08-.14.1-.17.07-.12q0-.04.05-.09.14-.18.23-.34l.11-.17.06-.1.06-.12.46-.73.27-.45.12-.18.14-.23.15-.26.16-.3.23-.43a13 13 0 00.53-1.04l.09-.17.06-.13.08-.18.08-.18.06-.15.18-.44a6 6 0 00.35-.87l.1-.26q.73-1.88-.6-2.42a3.6 3.6 0 00-1.75-.05l-1.07.16-.23.05a17 17 0 00-1.46.32q-.18.02-.29-.48c-.02-.07-.05-.18-.09-.24l-.06-.15-.06-.13-.06-.12c0-.07-.34-.52-.53-.71a2.4 2.4 0 00-1.22-.7c-.17-.05-.19-.06-.32-.23-.31-.38-.76-.6-1.47-.71a5 5 0 00-1.04-.04Zm1.16.85c.37.1.66.29.77.51.06.12.06.15-.02.46a3.6 3.6 0 01-1.23 1.89 9 9 0 01-1.15.79c-.14.12-.99.4-1.55.52q-.25.05-.53.19a2 2 0 01-.52.19l-.81.29c-.07.04-.08.03-.12-.02l-.05-.05.05-.25c.03-.14.08-.49.11-.79a3 3 0 01.18-.94c0-.08.25-.55.41-.8A5 5 0 017.5 4.41a4 4 0 011.98-.16Zm1.96 1.07a2.2 2.2 0 01.88 1.02l.08.17q.05.1.06.16l.07.25q.07.2.1.6l.05.51q.04.24-.2.14a4 4 0 01-.86-.43A4 4 0 0110.9 7c-.32-.49-.31-.46-.14-.83.11-.24.22-.58.26-.8q.04-.33.43-.04Zm6.24 1.82a1 1 0 01.26.22c.11.14.11.14.12.35q0 .2-.03.34l-.1.37-.1.33-.07.2a21 21 0 01-.67 1.56l-.08.19c0 .03-.34.72-.47.94l-.28.51-.16.28-.15.26-.15.26-.14.25-.11.19-.07.12q0 .03-.08.13l-.08.13q0 .04-.04.06l-.12.17-.13.22-.1.16-.11.16-.1.16-.06.1q-.03.02-.08.12l-.11.17q-.06.07-.13.2l-.13.21-.1.17-.13.19c-.16.19-.16.19-.77-.41a6 6 0 00-.9-.81l-.11.08c-.09.08-.09.08-.19.04s-.1-.04-.15.01c-.07.07-.06.08.04.19l.19.23c.12.16.31.35.83.86.43.41.42.41.31.62a2.3 2.3 0 01-.79.9c-.04.06-.16.03-.22-.05-.28-.36-.47-.46-.69-.32q-.17.1-.14.33.05.26-.19.17l-.26-.06q-.14-.02-.28-.09l-.23-.1a4 4 0 01-.73-.47 20 20 0 01-2.06-2.14c-.14-.12-.14-.17 0-.26.3-.2.38-.45.41-1.38.02-.59.02-.59-.52-.85a3 3 0 01-.55-.44q-.45-.45-.62-1.12c-.1-.39-.1-.45-.06-.52.06-.09.12-.08.29.07.13.11.18.14.35.18.41.1.89.04 1.15-.15.33-.23.64-.76.64-1.12 0-.13.14-.25.29-.25q.23 0 .25.24c.04.3.29.73.54.94.27.22.56.27 1.08.18.29-.05.27-.04.52-.23.27-.2.46-.58.52-1.05.04-.31.07-.31.48-.12l.39.19.15.08c.28.16.59.55.73.92.12.3.12.82.01 1.15a2.5 2.5 0 01-.57.99c-.57.68-.59.68-.61-.11a3 3 0 00-.08-.77c-.07-.24-.07-.27-.05-.69.02-.57-.01-.64-.3-.72-.13-.04-.15-.03-.27.01-.16.05-.21.16-.27.58a2 2 0 01-.33.9 2.4 2.4 0 01-1.32 1.14c-.4.1-.57.33-.41.58q.12.18.37.15l.24-.03c.18-.02.2 0 .29.52l.05.31c.03.16.19.36.33.4.17.05.53.02.72-.07.52-.22.61-.26 1-.55a9 9 0 001.3-1.2l.16-.21.11-.18.09-.14c.08-.1.34-.82.34-.95 0-.14.02-.18.29-.58l.2-.31.24-.39.21-.35.09-.13a1 1 0 00.17-.34c0-.09-.13-.28-.22-.32-.07-.03-.11-.02-.36.04-.16.04-.41.08-.57.1l-.33.05c-.15.05-.43-.18-.64-.53-.09-.14-.09-.16-.11-.46-.03-.39-.01-.43.16-.48l.87-.17.59-.1.77-.13.68-.11c.19-.04.36-.05.62-.04.35.01.35.01.51.09Zm-7.56.21c.18.24.48.58.56.64q.38.29-.13.29l-.7.03c-1 .06-1.01.06-1.04.02q-.09-.1.21-.28.28-.19.77-.62c.19-.17.25-.18.34-.07Zm-4.6 2.21q.06.1-.06.31c-.1.16-.13.76-.07 1.35.02.27.07.48.22 1.11.07.3.11.9.06 1.06s-.18.48-.21.53a2 2 0 00-.2.49c-.05.27-.05.27-.21.38l-.24.16a3 3 0 00-.8.76c-.31.47-.36.58-.5 1.18-.05.22-.11.82-.1 1.09.01.29-.11.26-.49-.13a2 2 0 01-.42-.54l-.08-.19c-.08-.18-.08-.19-.08-.53 0-.33.01-.36.07-.52.2-.46.26-.54.73-1.07.45-.49.64-.73.72-.87.33-.6.41-.89.41-1.47 0-.38-.01-.41-.07-.55-.13-.29-.39-.32-.58-.06-.04.06-.05.11-.05.46 0 .31-.01.42-.05.51l-.07.19c-.03.09-.11.17-.15.15l-.13-.16-.24-.32c-.34-.41-.44-.67-.45-1.06 0-.28 0-.3.09-.5q.32-.74 1.32-1.24l.54-.25a4 4 0 01.83-.28q.18-.1.25 0Zm6.26 2.83q.03.04.02.14c-.01.14.02.47.07.69s.02.3-.12.35q-.1.04-.22.12c-.22.15-.31.11-.35-.15l-.06-.31c-.04-.2-.01-.26.21-.5l.2-.23c.03-.05.17-.16.21-.16l.05.04Zm-5.03.3c.08.07.21.17.29.21.23.13.27.21.27.46q-.02.5-.1.61c-.08.08-.3.18-.53.24-.48.12-.45.12-.5.07s-.04-.05.02-.12l.11-.22.09-.26c.03-.09.04-.23.05-.61.01-.65.01-.66.32-.38Zm1.35-7.74c-.26.05-.88.3-1.14.48-.49.33-1.07.95-1.07 1.15 0 .14.23.36.37.36.07 0 .26-.14.36-.27q.7-.9 1.49-1.05c.24-.04.33-.08.41-.17q.19-.2.05-.37c-.1-.14-.22-.18-.47-.13m10.18 7.37q-.83.15-1.14.91c-.14.33-.15.78-.03 1.05l.05.15c0 .09.28.49.58.83a60 60 0 001.57 1.65c.31.3.45.33.71.11.19-.16 1.49-1.48 1.78-1.8.52-.58.71-1.03.68-1.55-.04-.6-.26-.94-.8-1.22a1.7 1.7 0 00-1.74.21c-.15.14-.18.14-.35-.01a1.2 1.2 0 00-.62-.32 2 2 0 00-.7-.02Zm.62.74c.19.08.27.15.53.46.24.28.4.27.65-.04q.27-.35.56-.44a.83.83 0 011.05.47c.15.32.03.74-.31 1.12-.45.51-1.58 1.64-1.64 1.65-.1.01-1.38-1.3-1.7-1.73-.36-.49-.38-.98-.04-1.31q.39-.36.9-.17ZM6.83 17.87c-.18.12-.17.08-.18 1.36 0 .81 0 1.16.02 1.2.04.06.27.2.34.2s.28-.14.31-.21q.03-.06.03-1.22c.01-1.06 0-1.16-.04-1.22-.11-.16-.34-.21-.49-.11Z"/></svg>