<svg xmlns="http://www.w3.org/2000/svg" xmlns:dc="http://purl.org/dc/elements/1.1/" xmlns:cc="http://creativecommons.org/ns#" xmlns:rdf="http://www.w3.org/1999/02/22-rdf-syntax-ns#" data-vigil-icon="robo-taxi" data-vigil-n="110" data-vigil-set="cultural-tech" data-vigil-version="2.0.0" fill="currentColor" viewBox="0 0 24 24"><title>Robo taxi — Vigil Icons</title><desc>Your ride is here. Your driver isn’t. Icon 110 of 111 in Vigil Icons by Keno Vigil, free at https://www.vigilicons.com/</desc><metadata><rdf:RDF><cc:Work rdf:about="https://www.vigilicons.com/icons/svg/robo-taxi.svg"><dc:format>image/svg+xml</dc:format><dc:type rdf:resource="http://purl.org/dc/dcmitype/StillImage"/><dc:title>Robo taxi</dc:title><dc:identifier>vigil-icons:robo-taxi</dc:identifier><dc:creator><cc:Agent><dc:title>Keno Vigil</dc:title></cc:Agent></dc:creator><dc:publisher><cc:Agent><dc:title>Vigil Icons</dc:title></cc:Agent></dc:publisher><dc:source>https://www.vigilicons.com/</dc:source><dc:date>2026-09-05</dc:date><dc:rights>© 2026 Keno Vigil. Licensed under the SIL Open Font License 1.1; free to use in anything you make, but not to be sold by itself. https://www.vigilicons.com/LICENSE.txt</dc:rights><cc:license rdf:resource="https://www.vigilicons.com/LICENSE.txt"/><dc:relation>https://www.npmjs.com/package/vigil-icons</dc:relation></cc:Work></rdf:RDF></metadata><path d="m10.32 2.44-.16.04c-.17 0-.54.4-.64.69a6 6 0 00.02 1.73c0 .11.43.55.54.55l.09.04q.05.04.34.04c.41 0 .41 0 .34.37-.03.16-.05.34-.05.41 0 .21.06.2-1.28.22l-2.04.01c-.75-.01-.86 0-.94.04l-.15.05-.13.04-.19.09-.16.07-.08.05a3 3 0 00-.9.88 3 3 0 00-.27.58l-.08.25-.05.2q-.05.25-.13.49l-.04.2q0 .07-.04.14l-.04.15q0 .09-.03.14l-.05.18-.05.2q-.12.35-.12.44 0 .07-.04.14l-.04.15q0 .09-.03.14l-.05.18c-.03.15-.08.34-.12.45l-.04.18-.05.19-.04.17q0 .07-.04.15l-.04.14q0 .18-.24.36c-.25.19-.56.47-.69.62a2 2 0 00-.51.99l-.05.22c-.05.16-.03 2.93.02 3.1q.17.6.48.91a2 2 0 00.75.48q.06.04.13.04c.12 0 .12.03.14.68.02.72.03.78.15.99q.2.36.44.44l.13.06c.07.04.19.05.95.05h.86l.15-.08c.29-.15.55-.47.61-.73l.04-.7.02-.61h10.14l.01.65c.01.54.03.67.06.74l.05.12c0 .11.29.4.55.54q.22.12 1.23.08c.69-.03.71-.03.95-.21.18-.13.4-.46.4-.59q0-.07.03-.12c.01-.03.03-.31.04-.64.01-.66.01-.67.21-.67q.08 0 .14-.04l.11-.04q.06 0 .1-.04l.06-.04c.16 0 .84-.73.84-.9l.04-.11c.1-.19.11-.39.12-1.81a8 8 0 00-.12-1.94l-.04-.13-.04-.1-.04-.09c0-.17-.64-.86-1.03-1.11q-.25-.16-.24-.38l-.03-.18-.05-.19-.13-.54a5 5 0 01-.17-.71l-.03-.17-.04-.18-.04-.16-.04-.21a6 6 0 01-.18-.7l-.03-.15-.04-.16-.04-.17-.04-.17-.04-.17-.04-.17-.04-.16-.04-.14-.04-.1a1 1 0 00-.14-.29q-.02-.01-.03-.06l-.08-.15-.08-.13a4 4 0 00-.62-.57q-.18-.13-.26-.16l-.32-.14-.13-.04-.16-.04c-.09-.04-.39-.05-1.95-.05l-1.88-.03q-.03-.03-.03-.14l-.05-.44c-.06-.42-.07-.4.36-.4.25 0 .34-.01.39-.04l.1-.04c.05 0 .36-.27.4-.35l.1-.17c.07-.11.07-.12.07-.91 0-.64-.01-.82-.04-.88l-.06-.12c-.06-.15-.29-.4-.42-.45l-.1-.05c-.19-.11-.26-.12-2.16-.12-1.53 0-1.86.01-1.95.04Zm3.8.96.08.08v.51c0 .5 0 .52-.06.58l-.06.07-1.73.02c-1.91.03-1.88.03-1.97-.16-.06-.1-.06-.93-.01-1.02.1-.17-.05-.16 1.9-.16h1.78zm-1.39 2.16q.03.04.03.24c0 .11.02.3.05.42q.05.24.01.26c-.05.06-1.14.06-1.17 0a3 3 0 01.13-.92c.06-.04.91-.03.95.01Zm4.54 1.89.15.03q.07 0 .14.04l.12.06.13.07.13.07c.06.03.4.36.43.42l.08.14.07.13q.12.3.18.61l.05.18q.03.06.03.14t.04.18l.04.18.04.16.04.14.04.19a6 6 0 01.18.7q.08.26.12.5l.05.2q.03.06.03.15t.04.19l.04.18q0 .07.05.18.04.11.03.22l-.01.12h-1.16l-.03-.1-.05-.12-.03-.09c0-.08-.21-.27-.3-.27q-.1.02-.05-.11c.02-.11.01-.12-.11-.23s-.33-.25-.4-.25c-.05 0-.25.2-.25.25q0 .05-.03.07t-.01.08c.02.05.42.36.46.36.03 0 .06.16.06.31l.01.1h-4.04l-.01-.08c-.01-.11.05-.2.32-.46l.24-.23-.04-.1q-.14-.37-.52-.13c-.12.08-.27.25-.27.3l-.11.12q-.18.15-.25.45-.03.12-.09.14l-1.06.01-1-.01-.07-.2-.1-.22-.03-.06c0-.16-.44-.61-.75-.76l-.3-.15-.13-.04c-.08 0-.23-.07-.23-.1q.01-.04.11-.16l.11-.16.04-.11c.13-.27.18-.75.09-.96l-.04-.14c0-.16-.56-.74-.71-.74l-.1-.05c-.06-.04-.14-.05-.45-.05-.39 0-.4 0-.62.13l-.11.05c-.1.05-.41.37-.47.51-.12.26-.14.32-.15.68-.01.43.06.64.29.88q.2.2-.1.22-.18.03-.4.13l-.13.05c-.29.11-.85.71-.85.9l-.04.09-.04.12c0 .14-.05.15-.63.14l-.54-.01-.01-.1a1 1 0 01.11-.49l.05-.19.05-.14.05-.16.05-.2c.04-.11.09-.31.12-.45l.05-.18q.03-.06.03-.14 0-.07.03-.14l.05-.18c.03-.17.08-.36.13-.46l.04-.17q0-.07.04-.15l.04-.16q0-.09.04-.14t.04-.16.04-.17.04-.15l.04-.16.09-.19c.12-.27.47-.64.7-.75l.1-.05.32-.13.18-.04c.14-.03 10.25-.01 10.36.02Zm-8.8 2.12c.29.13.48.51.35.69l-.04.1c0 .09-.19.24-.36.3-.3.09-.58-.07-.69-.4-.15-.47.31-.89.75-.69Zm.56 2.36q.07.03.15.04.09 0 .16.04l.12.06c.25.09.53.51.38.56-.1.04-3.29.02-3.31-.02-.03-.08.22-.41.37-.47l.1-.05c.1-.06.26-.12.33-.12l.18-.04a7 7 0 011.53 0Zm11.05 1.7c.15.09.48.33.56.43a3 3 0 01.39.63c.05.06.05.19.05 1.6s0 1.53-.05 1.58q-.05.05-.05.1c0 .06-.24.32-.33.38l-.2.11-.13.06H3.68l-.13-.06-.19-.1a1 1 0 01-.35-.41l-.09-.19v-1.51c0-1.4 0-1.52.05-1.59q.05-.07.05-.13t.03-.07l.07-.11a2 2 0 01.81-.71l.1-.05 8.01-.01h7.95l.1.06ZM6.01 19.46q.03.02.03.46c0 .8.02.78-.81.78h-.62l-.08-.09-.08-.08-.01-.49.01-.55c.01-.06.03-.06.77-.06.55 0 .76.01.79.03m13.48.02c.01.03.03.23.03.46 0 .77.01.76-.8.76h-.62l-.08-.08-.08-.08v-1.1h.76c.72 0 .76 0 .79.05ZM15.96 8.43c-.09.06-.1.46-.01.48.09.03.25.11.33.17.12.09.16.08.32-.07.18-.17.18-.24.03-.4l-.15-.12-.08-.04c-.07-.06-.37-.08-.44-.03Zm-.95.05c-.15.08-.35.28-.37.37q-.03.07.07.18.2.26-.06.12c-.19-.12-.35-.01-.38.26-.02.15-.01.16.06.21.1.06.34.09.4.05a1 1 0 00.16-.33c0-.08.18-.22.45-.35l.17-.08c.07-.04.07-.24 0-.37-.06-.12-.06-.12-.22-.11q-.16 0-.27.06Zm1.74.81c-.12.11-.12.11-.1.24.04.25.12.31.33.23.19-.07.23-.12.21-.29-.03-.31-.22-.39-.44-.19Zm-2.25.66-.11.03q-.2.03-.19.29 0 .16.04.22l.04.09a1 1 0 00.24.32q.11.07.31-.12c.15-.14.15-.13.05-.28-.05-.07-.1-.2-.13-.29q-.1-.31-.25-.25Zm2.22.15-.1.23-.08.18c-.05.1-.03.14.14.29.1.09.13.1.21.09.12-.03.18-.1.34-.48q.17-.43-.27-.44h-.16l-.06.13Zm-1.85 1.04-.08.04-.07.03c-.09 0-.19.14-.18.26.01.19.18.33.41.33s.48-.08.53-.17.03-.38-.04-.45c-.05-.06-.39-.08-.56-.04Zm1.06.02c-.05.05-.05.42.01.49.04.06.09.07.39.11q.26.04.36-.14.14-.22-.06-.39l-.12-.1h-.27q-.28 0-.31.03M4.42 15.29q-.33.27-.16.54c.08.16.17.2.4.24.26.03 13.84.04 14.49.01l.43-.03.11-.12a.45.45 0 00-.08-.67l-.08-.06H4.55l-.11.09Zm3.72 1.84c-.13.06-.22.21-.2.32.06.28.39.39.58.19.26-.27-.04-.67-.38-.51"/></svg>