<svg xmlns="http://www.w3.org/2000/svg" xmlns:dc="http://purl.org/dc/elements/1.1/" xmlns:cc="http://creativecommons.org/ns#" xmlns:rdf="http://www.w3.org/1999/02/22-rdf-syntax-ns#" data-vigil-icon="terminally-online" data-vigil-n="38" data-vigil-set="core" data-vigil-version="2.0.0" fill="currentColor" viewBox="0 0 24 24"><title>Terminally online — Vigil Icons</title><desc>Knows the discourse. Has not seen daylight. Icon 38 of 111 in Vigil Icons by Keno Vigil, free at https://www.vigilicons.com/</desc><metadata><rdf:RDF><cc:Work rdf:about="https://www.vigilicons.com/icons/svg/terminally-online.svg"><dc:format>image/svg+xml</dc:format><dc:type rdf:resource="http://purl.org/dc/dcmitype/StillImage"/><dc:title>Terminally online</dc:title><dc:identifier>vigil-icons:terminally-online</dc:identifier><dc:creator><cc:Agent><dc:title>Keno Vigil</dc:title></cc:Agent></dc:creator><dc:publisher><cc:Agent><dc:title>Vigil Icons</dc:title></cc:Agent></dc:publisher><dc:source>https://www.vigilicons.com/</dc:source><dc:date>2026-09-05</dc:date><dc:rights>© 2026 Keno Vigil. Licensed under the SIL Open Font License 1.1; free to use in anything you make, but not to be sold by itself. https://www.vigilicons.com/LICENSE.txt</dc:rights><cc:license rdf:resource="https://www.vigilicons.com/LICENSE.txt"/><dc:relation>https://www.npmjs.com/package/vigil-icons</dc:relation></cc:Work></rdf:RDF></metadata><path d="M11.8 2.03a2.6 2.6 0 00-2.01 3.56l.06.12c.07.19.28.48.52.7s.23.26 0 .3c-.3.05-.79.32-1.16.64-.7.63-1.12 1.5-1.53 3.15a10 10 0 00-.24 1.69c0 .18.07.66.13.86.22.75.75 1.29 1.48 1.51.35.11.37.11 1.92.11.8 0 1.49.01 1.53.02.76.17 1.18.5 1.5 1.16.17.35.22.57.22 1.06 0 .6-.07.87-.34 1.33a2 2 0 01-1.37.95c-.2.05-.21.05-1.52.05-1.52 0-1.39.02-1.43-.2a2.3 2.3 0 00-.84-1.29 2 2 0 00-.58-.3c-.08-.04-.16-.04-1.4-.04H5.42l-.1.05a1 1 0 00-.35.33c-.04.08-.05.14-.06.39q-.01.31-.04.33c-.03.03-.09.04-.62.03h-.58l-.12.08q-.32.22-.16.5c.1.19.14.2.83.2.74 0 .68-.03.68.38 0 .25 0 .3-.04.33-.03.03-.12.04-.64.04l-.6.01-.09.06c-.27.19-.23.53.1.68.1.04.12.04.64.04.68-.01.63-.04.63.35 0 .24.01.29.04.36.06.12.22.26.37.33l.13.06h1.14c1.11 0 1.21-.01 1.46-.07.5-.13 1.05-.58 1.3-1.05.09-.18.19-.44.22-.6.04-.22-.07-.2 1.42-.2.77 0 1.36-.01 1.45-.02.5-.07 1.14-.34 1.52-.65.56-.46.87-1.02 1.04-1.86a3.4 3.4 0 00-.53-2.48c-.1-.15-.48-.53-.59-.59l-.19-.11a3 3 0 00-.61-.29c-.35-.12-.38-.12-1.98-.13-1.44-.01-1.49-.02-1.69-.06l-.25-.08-.13-.06a1.3 1.3 0 01-.52-.45c-.34-.49-.36-1.3-.09-2.58.34-1.58 1.03-2.77 1.85-3.14q.72-.33 1.18.05c.11.09.25.29.29.41q.02.08.06.14.07.12.07.61l.02.42.05.4c.16 1.25.14 1.22.75 1.33l.51.1c.11.02.32.06.47.07.31.03.43.08.58.25.08.09.08.1 0 .41-.05.17-.07.21-.13.27l-.08.07h-.98c-.94 0-.99 0-1.15-.04l-.24-.06c-.28-.07-.6-.35-.74-.67l-.09-.23-.05-.2-.07-.33-.06-.31-.06-.36c-.03-.25-.07-.33-.23-.43-.15-.09-.21-.09-.34-.01q-.22.14-.2.34l.04.31.06.32a5 5 0 00.13.64l.07.25q.3 1.16 1.2 1.38l.29.07.17.05 3.64.01h3.64l.1-.05c.18-.11.23-.16.3-.3l.07-.18.27-1.08.09-.34.11-.38.17-.59.06-.23.06-.24.07-.28.08-.28.17-.58c.08-.26.07-.38-.03-.52l-.2-.18-.12-.06h-4.4l-.14.05c-.23.08-.43.29-.46.48l-.07.28-.12.41-.11.38-.08.34-.06.24-.05.2-.06.23-.05.21q-.04.24-.19.19a3 3 0 00-.8-.19 3 3 0 01-.77-.15c-.08-.07-.16-.48-.19-1.06-.02-.42-.1-.97-.15-1.06l-.06-.17-.05-.13-.06-.09-.17-.21c-.2-.2-.17-.25.15-.25.75 0 1.59-.41 2.02-.99.12-.17.24-.34.24-.36l.05-.11c.16-.29.26-.74.26-1.12a3 3 0 00-.18-1.02c0-.03-.11-.24-.24-.47a3 3 0 00-1-.86 3 3 0 00-1.66-.24Zm.99.82a1.84 1.84 0 011.23 2.27c-.29.93-1.33 1.53-2.21 1.27a1.9 1.9 0 01-1.37-1.41c-.21-1.04.38-1.89 1.53-2.2l.33-.01c.26 0 .31.01.49.07Zm6.96 5.45c.06.06.06.1.01.2l-.06.2q-.02.13-.07.25l-.08.27-.11.38-.12.46-.1.36-.1.31-.11.37-.22.76-.07.12-.05.06h-1.82c-1.39 0-1.82-.01-1.84-.02-.04-.04-.03-.17.01-.25l.26-1.01.08-.3.24-.87.11-.41.08-.29.05-.21q.04-.29.13-.37l.06-.05h3.66zM7.99 18.24c.63.26.95.88.86 1.62q-.1.83-.81 1.22c-.19.11-.21.11-1.27.11-.98 0-.99 0-1.04-.04-.04-.04-.04-.06-.05-1.44 0-1.43 0-1.49.08-1.52l1.07-.01 1.03.01z"/></svg>